<?xml version="1.0" encoding="UTF-8" standalone="no"?>
<!DOCTYPE svg PUBLIC "-//W3C//DTD SVG 1.1//EN" "http://www.w3.org/Graphics/SVG/1.1/DTD/svg11.dtd">
<!-- Created with Vectornator (http://vectornator.io/) -->
<svg height="100%" stroke-miterlimit="10" style="fill-rule:nonzero;clip-rule:evenodd;stroke-linecap:round;stroke-linejoin:round;" version="1.1" viewBox="0 0 600 100" width="100%" xml:space="preserve" xmlns="http://www.w3.org/2000/svg" xmlns:vectornator="http://vectornator.io" xmlns:xlink="http://www.w3.org/1999/xlink">
<defs>
<clipPath id="TextBounds">
<rect height="17.1463" width="114.748" x="913.36" y="600.656"/>
</clipPath>
<linearGradient gradientTransform="matrix(0.175781 0 0 0.175781 350.5 0.5)" gradientUnits="userSpaceOnUse" id="LinearGradient" x1="59.3889" x2="119.308" y1="218.95" y2="38.6788">
<stop offset="0" stop-color="#adadad"/>
<stop offset="1" stop-color="#797979"/>
</linearGradient>
<linearGradient gradientTransform="matrix(1 0 0 1 350.5 0.5)" gradientUnits="userSpaceOnUse" id="LinearGradient_2" x1="34.7595" x2="23.4132" y1="38.9846" y2="6.39217">
<stop offset="0" stop-color="#c9c8c8"/>
<stop offset="1" stop-color="#ffffff"/>
</linearGradient>
<linearGradient gradientTransform="matrix(0.175781 0 0 0.175781 500.5 0.5)" gradientUnits="userSpaceOnUse" id="LinearGradient_3" x1="147.614" x2="147.614" y1="5.2389" y2="241.763">
<stop offset="0" stop-color="#adadad"/>
<stop offset="1" stop-color="#000000"/>
</linearGradient>
<path d="M260.886 50.5L284.792 50.5C290.617 50.5 295.339 55.222 295.339 61.0469L295.339 84.9531C295.339 90.778 290.617 95.5 284.792 95.5L260.886 95.5C255.061 95.5 250.339 90.778 250.339 84.9531L250.339 61.0469C250.339 55.222 255.061 50.5 260.886 50.5Z" id="Fill"/>
</defs>
<clipPath id="ArtboardFrame">
<rect height="100" width="600" x="0" y="0"/>
</clipPath>
<g clip-path="url(#ArtboardFrame)" id="Layer-1" vectornator:layerName="Layer 1">
<g fill="#000000" opacity="1" stroke="none">
<path clip-path="url(#TextBounds)" d="M918.764 614.592C921.42 614.592 922.684 613.296 922.684 611.216C922.684 609.264 921.644 608.544 919.916 608.048L918.892 607.728C917.804 607.424 917.484 607.056 917.484 606.192C917.484 605.312 918.124 604.832 919.276 604.832C920.492 604.832 921.388 605.088 922.076 605.376L922.076 603.84C921.468 603.52 920.684 603.248 919.244 603.248C916.764 603.248 915.564 604.512 915.564 606.368C915.564 608.224 916.508 609.056 918.06 609.488L919.1 609.776C920.3 610.144 920.7 610.496 920.7 611.408C920.7 612.4 920.076 613.008 918.604 613.008C917.404 613.008 916.364 612.72 915.484 612.336L915.484 613.888C916.236 614.288 917.324 614.592 918.764 614.592Z"/>
<path clip-path="url(#TextBounds)" d="M929.052 614.576C930.364 614.576 931.372 614.304 932.124 613.904L932.124 612.384C931.468 612.656 930.668 612.976 929.42 612.976C927.116 612.976 926.236 611.552 926.236 609.04L926.236 608.48C926.236 605.872 927.5 604.848 929.404 604.848C930.412 604.848 931.164 605.024 932.012 605.36L932.012 603.824C931.34 603.456 930.476 603.248 929.26 603.248C926.412 603.248 924.108 604.736 924.108 608.688L924.108 609.088C924.108 612.784 925.996 614.576 929.052 614.576Z"/>
<path clip-path="url(#TextBounds)" d="M934.044 614.4L936.012 614.4L936.012 609.968L937.692 609.968L940.14 614.4L942.284 614.4L939.564 609.552L939.564 609.472C940.796 608.992 941.548 608.176 941.548 606.64C941.548 604.496 940.252 603.424 937.724 603.424L934.044 603.424L934.044 614.4ZM936.012 608.608L936.012 604.944L937.5 604.944C938.908 604.944 939.516 605.456 939.516 606.704C939.516 607.984 938.94 608.608 937.516 608.608L936.012 608.608Z"/>
<path clip-path="url(#TextBounds)" d="M948.316 614.576C951.292 614.576 953.34 612.64 953.34 609.088L953.34 608.736C953.34 605.072 951.34 603.248 948.412 603.248C945.42 603.248 943.388 605.2 943.388 608.736L943.388 609.088C943.388 612.72 945.356 614.576 948.316 614.576ZM948.38 613.056C946.284 613.056 945.484 611.552 945.484 609.072L945.484 608.512C945.484 606.288 946.412 604.784 948.316 604.784C950.444 604.8 951.244 606.288 951.244 608.752L951.244 609.296C951.244 611.536 950.3 613.056 948.38 613.056Z"/>
<path clip-path="url(#TextBounds)" d="M955.372 614.4L961.98 614.4L961.98 612.848L957.34 612.848L957.34 603.424L955.372 603.424L955.372 614.4Z"/>
<path clip-path="url(#TextBounds)" d="M963.804 614.4L970.412 614.4L970.412 612.848L965.772 612.848L965.772 603.424L963.804 603.424L963.804 614.4Z"/>
<path clip-path="url(#TextBounds)" d="M976.444 614.4L983.052 614.4L983.052 612.848L978.412 612.848L978.412 603.424L976.444 603.424L976.444 614.4Z"/>
<path clip-path="url(#TextBounds)" d="M984.876 614.4L991.82 614.4L991.82 612.848L986.844 612.848L986.844 609.52L990.636 609.52L990.636 607.984L986.844 607.984L986.844 604.976L991.724 604.976L991.724 603.424L984.876 603.424L984.876 614.4Z"/>
<path clip-path="url(#TextBounds)" d="M994.06 614.4L996.028 614.4L996.028 609.776L999.74 609.776L999.74 608.256L996.028 608.256L996.028 604.976L1000.8 604.976L1000.8 603.424L994.06 603.424L994.06 614.4Z"/>
<path clip-path="url(#TextBounds)" d="M1005.04 614.4L1007 614.4L1007 604.976L1010.12 604.976L1010.12 603.424L1001.88 603.424L1001.88 604.976L1005.04 604.976L1005.04 614.4Z"/>
</g>
<g opacity="1">
<path d="M361.047 0.5L384.953 0.5C390.778 0.5 395.5 5.222 395.5 11.0469L395.5 34.9531C395.5 40.778 390.778 45.5 384.953 45.5L361.047 45.5C355.222 45.5 350.5 40.778 350.5 34.9531L350.5 11.0469C350.5 5.222 355.222 0.5 361.047 0.5Z" fill="#000000" fill-rule="nonzero" opacity="1" stroke="#ffffff" stroke-linecap="butt" stroke-linejoin="miter" stroke-width="0.5"/>
<path d="M367.142 6.47697L377.545 6.47697L366.746 38.4744C366.635 38.8031 366.423 39.0889 366.141 39.2912C365.86 39.4937 365.521 39.6025 365.174 39.6027L357.078 39.6027C356.815 39.6027 356.556 39.5401 356.322 39.4201C356.088 39.3 355.886 39.1262 355.733 38.9126C355.579 38.699 355.479 38.4521 355.44 38.1919C355.401 37.9319 355.425 37.6663 355.509 37.4172L365.57 7.60524C365.681 7.27631 365.892 6.99048 366.174 6.78799C366.456 6.58551 366.795 6.47658 367.142 6.47656L367.142 6.47697Z" fill="url(#LinearGradient)" fill-rule="nonzero" opacity="1" stroke="none"/>
<path d="M382.259 27.9386L365.762 27.9386C365.609 27.9384 365.459 27.9845 365.332 28.0708C365.205 28.1569 365.108 28.2794 365.051 28.422C364.995 28.5647 364.983 28.721 365.017 28.8706C365.051 29.0202 365.129 29.1562 365.241 29.2606L375.842 39.1548C376.15 39.4426 376.556 39.6027 376.978 39.6027L386.32 39.6027L382.259 27.9386Z" fill="#adadad" fill-rule="nonzero" opacity="1" stroke="none"/>
<path d="M380.429 7.60364C380.318 7.27522 380.108 6.98986 379.826 6.78773C379.544 6.58562 379.206 6.47691 378.86 6.47695L367.266 6.47695C367.612 6.47697 367.95 6.58569 368.232 6.78782C368.513 6.98993 368.724 7.27526 368.835 7.60364L378.897 37.4169C378.981 37.666 379.005 37.9316 378.966 38.1917C378.927 38.4519 378.827 38.6988 378.673 38.9126C378.52 39.1262 378.318 39.3002 378.084 39.4203C377.85 39.5403 377.591 39.6031 377.328 39.6031L388.922 39.6031C389.185 39.6029 389.444 39.5403 389.678 39.4203C389.912 39.3 390.114 39.126 390.268 38.9124C390.421 38.6987 390.521 38.4517 390.56 38.1915C390.599 37.9316 390.575 37.666 390.491 37.4169L380.429 7.60364Z" fill="url(#LinearGradient_2)" fill-rule="nonzero" opacity="1" stroke="none"/>
</g>
<g opacity="1">
<path d="M411.047 50.5L434.953 50.5C440.778 50.5 445.5 55.222 445.5 61.0469L445.5 84.9531C445.5 90.778 440.778 95.5 434.953 95.5L411.047 95.5C405.222 95.5 400.5 90.778 400.5 84.9531L400.5 61.0469C400.5 55.222 405.222 50.5 411.047 50.5Z" fill="#000000" fill-rule="nonzero" opacity="1" stroke="#ffffff" stroke-linecap="butt" stroke-linejoin="miter" stroke-width="0.5"/>
<path d="M436.328 62.6L425.229 56.0117C423.904 55.2253 422.271 55.2253 420.947 56.0117L409.848 62.6C408.523 63.3864 407.707 64.8394 407.707 66.4121L407.707 79.5888C407.707 81.1612 408.523 82.6149 409.848 83.4013L420.947 89.9884C421.609 90.3818 422.348 90.5779 423.088 90.5779C423.827 90.5779 424.566 90.3818 425.228 89.9884L436.327 83.4013C437.652 82.6149 438.469 81.1612 438.469 79.5888L438.469 66.4121C438.469 64.8394 437.652 63.3864 436.328 62.6Z" fill="#000000" fill-rule="evenodd" opacity="1" stroke="none"/>
<path d="M421.335 89.3139L410.236 82.7267C409.15 82.0823 408.476 80.8799 408.476 79.5886L408.476 66.4123C408.476 65.1209 409.15 63.9187 410.236 63.2746L421.335 56.6862C421.867 56.3704 422.473 56.2033 423.088 56.2033C423.702 56.2033 424.308 56.3704 424.841 56.6862L435.94 63.2746C436.854 63.8175 437.471 64.7578 437.645 65.8124C437.277 65.0268 436.447 64.8132 435.479 65.3783L424.979 71.8639C423.67 72.6293 422.705 73.4881 422.704 75.0668L422.704 88.005C422.703 88.9504 423.085 89.5626 423.671 89.7402C423.478 89.7736 423.284 89.7968 423.088 89.7968C422.473 89.7968 421.867 89.6298 421.335 89.3139ZM436.328 62.5998L425.229 56.0118C424.566 55.6185 423.827 55.422 423.088 55.422C422.348 55.422 421.609 55.6185 420.947 56.0118L409.848 62.5998C408.523 63.3862 407.707 64.8395 407.707 66.4123L407.707 79.5886C407.707 81.161 408.523 82.6147 409.848 83.4012L420.947 89.9886C421.61 90.3816 422.348 90.5781 423.088 90.5781C423.827 90.5781 424.566 90.3816 425.228 89.9886L436.328 83.4012C437.652 82.6147 438.469 81.161 438.469 79.5886L438.469 66.4123C438.469 64.8395 437.652 63.3862 436.328 62.5998Z" fill="#ffffff" fill-rule="evenodd" opacity="1" stroke="none"/>
<path d="M433.418 80.8625L430.654 82.5166C430.581 82.5593 430.527 82.6073 430.527 82.6954L430.527 83.4186C430.527 83.507 430.586 83.5437 430.659 83.5006L433.466 81.795C433.539 81.7523 433.55 81.6706 433.551 81.5825L433.551 80.9446C433.551 80.8567 433.491 80.8198 433.418 80.8625Z" fill="#000000" fill-rule="evenodd" opacity="1" stroke="none"/>
<path d="M427.533 74.775C427.623 74.7297 427.696 74.7854 427.697 74.9025L427.707 75.8586C428.107 75.6993 428.455 75.6568 428.77 75.7295C428.838 75.7478 428.868 75.8408 428.84 75.9512L428.63 76.7985C428.614 76.8624 428.578 76.9271 428.534 76.9674C428.516 76.9853 428.497 76.9992 428.479 77.0085C428.45 77.0229 428.423 77.0275 428.396 77.0221C428.252 76.9895 427.91 76.9148 427.372 77.1873C426.808 77.4729 426.611 77.9632 426.614 78.327C426.619 78.7616 426.842 78.8932 427.612 78.9064C428.637 78.9235 429.08 79.3715 429.091 80.4044C429.102 81.4187 428.56 82.5078 427.732 83.1753L427.75 84.1217C427.751 84.2356 427.677 84.3662 427.588 84.4115L427.027 84.7345C426.937 84.7798 426.864 84.7239 426.862 84.61L426.853 83.6791C426.373 83.8786 425.886 83.9267 425.575 83.8019C425.517 83.7791 425.492 83.6926 425.515 83.5942L425.718 82.7385C425.734 82.671 425.77 82.6035 425.818 82.5606C425.836 82.5439 425.853 82.531 425.871 82.5221C425.903 82.5059 425.935 82.5024 425.961 82.5124C426.296 82.6253 426.725 82.5725 427.136 82.364C427.66 82.0993 428.01 81.5656 428.004 81.0355C427.999 80.5544 427.739 80.3545 427.106 80.3498C426.299 80.3521 425.548 80.1931 425.535 79.0064C425.525 78.0295 426.033 77.0127 426.838 76.3699L426.828 75.4145C426.826 75.2971 426.898 75.1679 426.99 75.1215L427.533 74.775Z" fill="#242938" fill-rule="evenodd" opacity="1" stroke="none"/>
</g>
<g opacity="1">
<path d="M160.886 50.5L184.792 50.5C190.617 50.5 195.339 55.222 195.339 61.0469L195.339 84.9531C195.339 90.778 190.617 95.5 184.792 95.5L160.886 95.5C155.061 95.5 150.339 90.778 150.339 84.9531L150.339 61.0469C150.339 55.222 155.061 50.5 160.886 50.5Z" fill="#000000" fill-rule="nonzero" opacity="1" stroke="#ffffff" stroke-linecap="butt" stroke-linejoin="miter" stroke-width="0.5"/>
<path d="M159.787 68.5441L160.291 74.1589L172.856 74.1589L172.856 68.5441L159.787 68.5441Z" fill="#ebebeb" fill-rule="nonzero" opacity="1" stroke="none"/>
<path d="M172.855 57.1797L172.836 57.1797L158.776 57.1797L159.287 62.7945L172.855 62.7945L172.855 57.1797Z" fill="#ebebeb" fill-rule="nonzero" opacity="1" stroke="none"/>
<path d="M172.855 88.9681L172.855 83.1264L172.831 83.1329L166.578 81.4445L166.178 76.9663L163.139 76.9663L160.542 76.9663L161.328 85.7825L172.83 88.9754L172.855 88.9681Z" fill="#ebebeb" fill-rule="nonzero" opacity="1" stroke="none"/>
<path d="M179.75 74.1589L179.098 81.4408L172.836 83.1312L172.836 88.9725L184.347 85.7825L184.431 84.8338L185.751 70.052L185.887 68.5441L186.901 57.1797L172.836 57.1797L172.836 62.7945L180.748 62.7945L180.237 68.5441L172.836 68.5441L172.836 74.1589L179.75 74.1589Z" fill="#ffffff" fill-rule="nonzero" opacity="1" stroke="none"/>
</g>
<g opacity="1">
<path d="M211.047 0.5L234.953 0.5C240.778 0.5 245.5 5.222 245.5 11.0469L245.5 34.9531C245.5 40.778 240.778 45.5 234.953 45.5L211.047 45.5C205.222 45.5 200.5 40.778 200.5 34.9531L200.5 11.0469C200.5 5.222 205.222 0.5 211.047 0.5Z" fill="#000000" fill-rule="nonzero" opacity="1" stroke="#ffffff" stroke-linecap="butt" stroke-linejoin="miter" stroke-width="0.5"/>
<path d="M225.318 21.9669L228.96 21.9669L228.96 18.6721L225.318 18.6721L225.318 21.9669ZM220.983 21.9669L224.624 21.9669L224.624 18.6721L220.983 18.6721L220.983 21.9669ZM216.734 21.9669L220.376 21.9669L220.376 18.6721L216.734 18.6721L216.734 21.9669ZM212.486 21.9669L216.041 21.9669L216.041 18.6721L212.486 18.6721L212.486 21.9669ZM208.151 21.9669L211.792 21.9669L211.792 18.6721L208.151 18.6721L208.151 21.9669ZM212.486 17.9785L216.041 17.9785L216.041 14.6837L212.486 14.6837L212.486 17.9785ZM216.734 17.9785L220.376 17.9785L220.376 14.6837L216.734 14.6837L216.734 17.9785ZM220.983 17.9785L224.624 17.9785L224.624 14.6837L220.983 14.6837L220.983 17.9785ZM220.983 13.9901L224.624 13.9901L224.624 10.6953L220.983 10.6953L220.983 13.9901ZM240.578 20.493C240.578 20.493 239.017 19.0189 235.809 19.5392C235.463 17.0248 232.775 15.5508 232.775 15.5508C232.775 15.5508 230.26 18.5854 232.081 21.9669C231.561 22.2271 230.694 22.5739 229.393 22.5739L205.549 22.5739C205.116 24.2213 205.116 35.146 217.081 35.146C225.665 35.146 232.081 31.1577 235.116 23.8743C239.624 24.2213 240.578 20.493 240.578 20.493Z" fill="#ffffff" fill-rule="nonzero" opacity="1" stroke="none"/>
</g>
<g opacity="1">
<path d="M60.8856 50.5L84.7919 50.5C90.6167 50.5 95.3387 55.222 95.3387 61.0469L95.3387 84.9531C95.3387 90.778 90.6167 95.5 84.7919 95.5L60.8856 95.5C55.0607 95.5 50.3387 90.778 50.3387 84.9531L50.3387 61.0469C50.3387 55.222 55.0607 50.5 60.8856 50.5Z" fill="#000000" fill-rule="nonzero" opacity="1" stroke="#ffffff" stroke-linecap="butt" stroke-linejoin="miter" stroke-width="0.5"/>
<path d="M72.8389 55.7734C63.1319 55.7734 55.2606 63.6433 55.2606 73.3517C55.2606 81.1183 60.2973 87.7073 67.2817 90.0316C68.1601 90.1944 68.4827 89.6504 68.4827 89.1861C68.4827 88.7669 68.4663 87.3822 68.4588 85.9134C63.5686 86.9767 62.5367 83.8394 62.5367 83.8394C61.737 81.8075 60.5849 81.2673 60.5849 81.2673C58.99 80.1763 60.7051 80.1988 60.7051 80.1988C62.4703 80.3227 63.3997 82.0102 63.3997 82.0102C64.9675 84.6975 67.5119 83.9206 68.515 83.4715C68.6729 82.3352 69.1283 81.5598 69.6311 81.1209C65.7267 80.6764 61.6224 79.169 61.6224 72.4336C61.6224 70.5145 62.309 68.9463 63.4335 67.7153C63.251 67.2726 62.6493 65.4847 63.6038 63.0635C63.6038 63.0635 65.0799 62.591 68.4391 64.8653C69.8413 64.4758 71.3449 64.2805 72.8389 64.2738C74.3327 64.2805 75.8377 64.4758 77.2424 64.8653C80.5975 62.591 82.0716 63.0635 82.0716 63.0635C83.0284 65.4847 82.4265 67.2726 82.2439 67.7153C83.371 68.9463 84.053 70.5145 84.053 72.4336C84.053 79.1852 79.9408 80.6718 76.0265 81.1069C76.657 81.6525 77.2188 82.7221 77.2188 84.3621C77.2188 86.7141 77.1985 88.6071 77.1985 89.1861C77.1985 89.6539 77.5149 90.202 78.4059 90.0293C85.3865 87.7023 90.4169 81.1156 90.4169 73.3517C90.4169 63.6433 82.5466 55.7734 72.8389 55.7734ZM61.8442 80.814C61.8055 80.9014 61.6681 80.9276 61.543 80.8676C61.4155 80.8103 61.3438 80.6911 61.3852 80.6036C61.423 80.5136 61.5607 80.4886 61.6879 80.5489C61.8157 80.6062 61.8885 80.7265 61.8442 80.814ZM62.7089 81.5855C62.6251 81.6634 62.4612 81.6272 62.35 81.5043C62.235 81.3818 62.2135 81.218 62.2985 81.139C62.3849 81.0613 62.5439 81.0977 62.6591 81.2202C62.7741 81.3443 62.7965 81.5069 62.7089 81.5855ZM63.3021 82.5727C63.1944 82.6476 63.0183 82.5774 62.9094 82.421C62.8017 82.2647 62.8017 82.0773 62.9117 82.0021C63.0209 81.9271 63.1944 81.9946 63.3047 82.1498C63.4121 82.3087 63.4121 82.4962 63.3021 82.5727ZM64.3053 83.716C64.2089 83.8221 64.0037 83.7937 63.8535 83.6487C63.6998 83.507 63.657 83.3059 63.7537 83.1995C63.8512 83.093 64.0576 83.1231 64.2089 83.2669C64.3615 83.4082 64.408 83.6109 64.3053 83.716ZM65.6018 84.1018C65.5593 84.2396 65.3617 84.3022 65.1626 84.2437C64.9638 84.1834 64.8336 84.0222 64.8738 83.883C64.9152 83.7445 65.1137 83.6792 65.3142 83.7418C65.5128 83.8018 65.6432 83.9619 65.6018 84.1018ZM67.0774 84.2656C67.0823 84.4105 66.9135 84.5307 66.7045 84.5334C66.4943 84.5381 66.3243 84.4207 66.322 84.2781C66.322 84.1317 66.487 84.0127 66.6972 84.0092C66.9062 84.0051 67.0774 84.1215 67.0774 84.2656ZM68.5268 84.2101C68.5519 84.3514 68.4068 84.4968 68.1992 84.5355C67.9951 84.5727 67.8061 84.4854 67.7803 84.3451C67.7549 84.2001 67.9028 84.0549 68.1065 84.0173C68.3145 83.9812 68.5004 84.0663 68.5268 84.2101Z" fill="#ffffff" fill-rule="nonzero" opacity="1" stroke="none"/>
</g>
<g opacity="1">
<path d="M210.886 50.5L234.792 50.5C240.617 50.5 245.339 55.222 245.339 61.0469L245.339 84.9531C245.339 90.778 240.617 95.5 234.792 95.5L210.886 95.5C205.061 95.5 200.339 90.778 200.339 84.9531L200.339 61.0469C200.339 55.222 205.061 50.5 210.886 50.5Z" fill="#000000" fill-rule="nonzero" opacity="1" stroke="#ffffff" stroke-linecap="butt" stroke-linejoin="miter" stroke-width="0.5"/>
<path d="M212.171 88.1052L215.615 86.0212C216.279 87.1991 216.883 88.1958 218.333 88.1958C219.722 88.1958 220.599 87.6522 220.599 85.5379L220.599 71.1594L224.828 71.1594L224.828 85.5977C224.828 89.9777 222.26 91.9714 218.514 91.9714C215.131 91.9714 213.168 90.2194 212.171 88.1049" fill="#ffffff" fill-rule="nonzero" opacity="1" stroke="none"/>
<path d="M227.124 87.6521L230.568 85.6585C231.474 87.1388 232.652 88.2262 234.736 88.2262C236.489 88.2262 237.606 87.3501 237.606 86.1418C237.606 84.6919 236.458 84.1783 234.525 83.3328L233.468 82.8794C230.417 81.5808 228.393 79.9495 228.393 76.506C228.393 73.3342 230.81 70.9175 234.585 70.9175C237.274 70.9175 239.207 71.8541 240.597 74.3008L237.304 76.4153C236.579 75.1164 235.794 74.6029 234.585 74.6029C233.347 74.6029 232.562 75.3883 232.562 76.4153C232.562 77.6839 233.347 78.1975 235.159 78.9831L236.216 79.4361C239.811 80.9768 241.835 82.5472 241.835 86.0813C241.835 89.8877 238.844 91.9717 234.827 91.9717C230.9 91.9717 228.363 90.0989 227.124 87.6521" fill="#ffffff" fill-rule="nonzero" opacity="1" stroke="none"/>
</g>
<g opacity="1">
<path d="M110.886 50.5L134.792 50.5C140.617 50.5 145.339 55.222 145.339 61.0469L145.339 84.9531C145.339 90.778 140.617 95.5 134.792 95.5L110.886 95.5C105.061 95.5 100.339 90.778 100.339 84.9531L100.339 61.0469C100.339 55.222 105.061 50.5 110.886 50.5Z" fill="#000000" fill-rule="nonzero" opacity="1" stroke="#ffffff" stroke-linecap="butt" stroke-linejoin="miter" stroke-width="0.5"/>
<path d="M108.776 57.1797L110.29 74.1589L129.75 74.1589L129.097 81.4415L122.832 83.1357L116.577 81.444L116.159 76.7679L110.523 76.7679L111.329 85.7821L122.83 88.9764L134.346 85.7821L135.889 68.5448L115.425 68.5448L114.911 62.795L136.381 62.795L136.398 62.795L136.901 57.1797L108.776 57.1797Z" fill="#ffffff" fill-rule="nonzero" opacity="1" stroke="none"/>
<path d="M122.839 57.1797L108.776 57.1797L110.29 74.1589L122.839 74.1589L122.839 68.5448L115.425 68.5448L114.911 62.795L122.839 62.795L122.839 57.1797Z" fill="#ebebeb" fill-rule="nonzero" opacity="1" stroke="none"/>
<path d="M122.839 83.1333L122.832 83.1357L116.577 81.444L116.159 76.7679L110.523 76.7679L111.329 85.7821L122.83 88.9764L122.839 88.9739L122.839 83.1333Z" fill="#ebebeb" fill-rule="nonzero" opacity="1" stroke="none"/>
</g>
<g opacity="1">
<path d="M311.047 0.5L334.953 0.5C340.778 0.5 345.5 5.222 345.5 11.0469L345.5 34.9531C345.5 40.778 340.778 45.5 334.953 45.5L311.047 45.5C305.222 45.5 300.5 40.778 300.5 34.9531L300.5 11.0469C300.5 5.222 305.222 0.5 311.047 0.5Z" fill="#000000" fill-rule="nonzero" opacity="1" stroke="#ffffff" stroke-linecap="butt" stroke-linejoin="miter" stroke-width="0.5"/>
<path d="M315.608 35.6432L319.92 38.0374L326.441 38.0374L332.541 33.4574L335.276 26.2752L328.965 18.6767L327.177 14.409L318.448 14.7213L318.553 17.1153L316.87 20.2379L314.241 25.3384L313.715 29.606L315.608 35.6432Z" fill="#eceff1" fill-rule="nonzero" opacity="1" stroke="none"/>
<path d="M333.382 20.6544C331.7 18.2602 330.332 16.8031 329.596 13.7845C328.86 10.7659 329.807 11.5986 329.176 8.99633C328.86 7.64317 328.334 6.70636 327.808 5.97773C327.177 5.2491 326.441 4.83274 326.02 4.72865C325.074 4.20821 322.865 3.37548 320.131 4.83274C317.291 6.29001 317.607 9.41269 318.132 15.7622C318.132 16.1785 318.027 16.699 317.817 17.1153C317.396 18.0521 316.66 18.8848 316.029 19.6136C315.293 20.6544 314.557 21.6954 314.031 22.8402C312.769 25.2344 311.612 28.2529 311.927 29.3979C312.453 29.2938 319.079 39.2865 319.079 39.4946C319.5 39.3905 321.288 39.3905 322.865 39.3905C325.074 39.2865 326.336 39.1824 328.124 39.5987C328.124 39.2865 328.019 38.9741 328.019 38.6619C328.019 38.0374 328.124 37.5169 328.229 36.7883C328.334 36.2678 328.439 35.7475 328.544 35.1229C327.493 36.0597 325.6 37.1006 323.812 37.4128C322.234 37.725 319.605 37.2047 318.343 35.6432C318.448 35.6432 318.658 35.6432 318.763 35.5392C319.079 35.4351 319.395 35.3311 319.5 35.1229C319.815 34.6024 319.605 34.082 319.395 33.7698C319.184 33.4574 317.607 32.3124 316.87 31.688C316.134 31.0634 315.713 30.7511 315.293 30.3348C315.293 30.3348 314.662 29.7103 314.451 29.502C314.241 29.2938 314.136 29.0857 314.031 28.9815C313.82 28.4612 313.715 27.8366 313.82 27.0039C313.926 25.8589 314.346 24.922 314.872 23.8812C315.082 23.4648 315.608 22.6321 315.608 22.6321C315.608 22.6321 313.82 27.0039 314.767 28.3571C314.767 28.3571 314.872 27.0039 315.293 25.6508C315.608 24.7139 316.134 23.3607 316.765 22.6321C317.396 21.9035 318.974 19.1971 319.079 17.5317C319.079 16.8031 319.184 16.0744 319.184 15.554C318.763 15.1376 326.126 14.0967 326.546 15.2417C326.651 15.6581 328.124 19.4053 328.965 21.383C329.386 22.3199 329.912 23.1526 330.227 24.1934C330.543 25.3384 330.753 26.8997 330.753 28.4612C330.753 28.7734 330.753 29.2938 330.648 29.8143C330.858 29.8143 334.96 25.4425 330.122 21.7994C330.122 21.7994 333.067 23.1526 333.172 25.8589C333.277 28.0447 332.331 29.8143 332.12 30.1265C332.226 30.1265 334.329 31.0634 334.434 31.0634C334.855 31.0634 335.696 30.7511 335.696 30.7511C335.801 30.4389 336.117 29.606 336.117 29.2938C336.853 26.8997 335.065 23.0485 333.382 20.6544L333.382 20.6544Z" fill="#000000" fill-rule="nonzero" opacity="1" stroke="#f9f9f9" stroke-linecap="butt" stroke-linejoin="miter" stroke-width="0.5"/>
<path d="M320.025 13.7845C320.781 13.7845 321.393 12.8524 321.393 11.7027C321.393 10.5529 320.781 9.62087 320.025 9.62087C319.27 9.62087 318.658 10.5529 318.658 11.7027C318.658 12.8524 319.27 13.7845 320.025 13.7845Z" fill="#eceff1" fill-rule="nonzero" opacity="1" stroke="none"/>
<path d="M324.758 13.9926C325.746 13.9926 326.546 12.9208 326.546 11.5986C326.546 10.2764 325.746 9.20451 324.758 9.20451C323.771 9.20451 322.97 10.2764 322.97 11.5986C322.97 12.9208 323.771 13.9926 324.758 13.9926Z" fill="#eceff1" fill-rule="nonzero" opacity="1" stroke="none"/>
<path d="M320.789 11.8451C320.702 11.1607 320.304 10.6468 319.901 10.6973C319.497 10.7477 319.241 11.3435 319.329 12.0279C319.416 12.7122 319.814 13.2262 320.217 13.1757C320.621 13.1252 320.877 12.5295 320.789 11.8451Z" fill="#212121" fill-rule="nonzero" opacity="1" stroke="none"/>
<path d="M324.653 13.3681C325.234 13.3681 325.705 12.7623 325.705 12.0149C325.705 11.2676 325.234 10.6618 324.653 10.6618C324.072 10.6618 323.601 11.2676 323.601 12.0149C323.601 12.7623 324.072 13.3681 324.653 13.3681Z" fill="#212121" fill-rule="nonzero" opacity="1" stroke="none"/>
<path d="M338.641 34.9146C338.22 34.7065 337.484 34.3941 336.853 33.4574C336.538 32.9369 336.643 31.4797 336.117 30.8551C335.801 30.4389 335.381 30.647 335.276 30.647C334.329 30.8551 332.12 32.3124 330.648 30.647C330.437 30.4389 330.122 30.1265 329.596 30.1265C329.07 30.1265 328.86 30.3346 328.65 30.7511C328.439 31.1675 328.439 31.4797 328.439 32.5207C328.439 33.3533 328.439 34.2901 328.334 35.0187C328.124 36.7883 327.808 37.8293 327.808 38.8701C327.808 40.0151 328.124 40.7437 328.544 41.0559C328.86 41.3683 329.386 41.5764 330.543 41.5764C331.7 41.5764 332.436 41.1601 333.172 40.4313C333.698 39.911 334.119 39.7027 335.591 38.6619C336.748 37.9333 338.536 36.9964 338.851 36.6842C339.062 36.4761 339.377 36.3719 339.377 35.7473C339.377 35.227 338.957 35.0187 338.641 34.9146L338.641 34.9146Z" fill="#adadad" fill-rule="nonzero" opacity="1" stroke="none"/>
<path d="M317.501 35.227C316.45 33.5615 316.344 33.2493 315.608 32.2083C314.977 31.1675 313.61 29.1898 312.769 29.1898C312.138 29.1898 311.822 29.502 311.401 29.9184C310.981 30.3346 310.56 31.2716 309.824 31.7921C309.193 32.3124 307.405 32.2083 306.984 32.8329C306.563 33.4574 307.405 34.3943 307.405 35.9556C307.405 36.5802 306.879 36.9964 306.774 37.4128C306.669 37.9333 306.563 38.2455 306.774 38.6619C307.194 39.2865 307.72 39.4946 311.296 40.2232C313.189 40.6396 314.977 41.6804 316.134 41.7847C317.291 41.8887 319.289 41.7847 319.289 38.9741C319.395 37.3088 318.448 36.8923 317.501 35.227Z" fill="#adadad" fill-rule="nonzero" opacity="1" stroke="none"/>
<path d="M319.5 16.3867C318.869 15.9703 318.343 15.554 318.343 14.9294C318.343 14.3049 318.763 14.0967 319.395 13.5763C319.5 13.4722 320.656 12.4313 321.813 12.4313C322.97 12.4313 324.338 13.1599 324.863 13.3681C325.81 13.5763 326.756 13.7845 326.651 14.5131C326.546 15.554 326.441 15.7622 325.389 16.2826C324.653 16.4908 323.286 17.6358 322.339 17.6358C321.919 17.6358 321.288 17.6358 320.867 17.5317C320.551 17.4276 320.025 16.9072 319.5 16.3867L319.5 16.3867Z" fill="#adadad" fill-rule="nonzero" opacity="1" stroke="none"/>
<path d="M319.289 15.554C319.5 15.7622 319.815 15.9703 320.131 16.0744C320.341 16.1785 320.656 16.2826 320.656 16.2826C321.077 16.2826 321.393 16.2826 321.603 16.2826C322.129 16.2826 322.865 16.0744 323.601 15.6581C324.338 15.3458 324.443 15.1376 324.969 14.9294C325.495 14.6172 326.02 14.3049 325.81 14.2008C325.6 14.0967 325.389 14.2008 324.653 14.6172C324.022 15.0335 323.496 15.2417 322.865 15.554C322.55 15.6581 322.129 15.8663 321.813 15.8663C321.498 15.8663 321.182 15.8663 320.867 15.8663C320.551 15.8663 320.341 15.7622 320.025 15.6581C319.815 15.554 319.71 15.4499 319.605 15.4499C319.395 15.3458 318.974 14.9294 318.763 14.8254C318.763 14.8254 318.553 14.8254 318.658 14.9294C318.974 15.2417 319.079 15.3458 319.289 15.554Z" fill="#634703" fill-rule="nonzero" opacity="1" stroke="none"/>
<path d="M322.445 13.264C322.55 13.4722 322.76 13.4722 322.865 13.5763C322.97 13.6804 323.075 13.6804 323.075 13.6804C323.181 13.5763 323.075 13.3681 322.97 13.3681C322.97 13.1599 322.445 13.1599 322.445 13.264L322.445 13.264Z" fill="#634703" fill-rule="nonzero" opacity="1" stroke="none"/>
<path d="M320.762 13.4722C320.762 13.5763 320.972 13.6804 320.972 13.5763C321.077 13.4722 321.182 13.3681 321.288 13.3681C321.498 13.264 321.393 13.1599 321.077 13.1599C320.867 13.264 320.867 13.3681 320.762 13.4722L320.762 13.4722Z" fill="#634703" fill-rule="nonzero" opacity="1" stroke="none"/>
<path d="M330.963 31.8961C330.963 32.0002 330.963 32.1042 330.963 32.2083C331.174 32.6247 331.7 32.7288 332.12 32.7288C332.751 32.7288 333.382 32.3124 333.698 31.8961C333.698 31.7921 333.803 31.6878 333.908 31.5838C334.119 31.2716 334.224 31.0634 334.329 30.9592C334.329 30.9592 334.224 30.8551 334.224 30.7511C334.119 30.5429 333.803 30.3346 333.382 30.2306C333.067 30.1265 332.541 30.0225 332.331 30.0225C331.384 29.9184 330.858 30.2306 330.543 30.5429C330.543 30.5429 330.648 30.5429 330.648 30.647C330.858 30.8551 330.963 31.0634 330.963 31.3756C331.069 31.5838 330.963 31.6878 330.963 31.8961L330.963 31.8961Z" fill="#000000" fill-rule="nonzero" opacity="1" stroke="none"/>
</g>
<g opacity="1"/>
<g opacity="1">
<path d="M461.047 0.5L484.953 0.5C490.778 0.5 495.5 5.222 495.5 11.0469L495.5 34.9531C495.5 40.778 490.778 45.5 484.953 45.5L461.047 45.5C455.222 45.5 450.5 40.778 450.5 34.9531L450.5 11.0469C450.5 5.222 455.222 0.5 461.047 0.5Z" fill="#000000" fill-rule="nonzero" opacity="1" stroke="#ffffff" stroke-linecap="butt" stroke-linejoin="miter" stroke-width="0.5"/>
<g opacity="1">
<clipPath id="ClipPath">
<path d="M457.18 7.17969L488.82 7.17969L488.82 7.17969L488.82 38.8203L488.82 38.8203L457.18 38.8203L457.18 38.8203L457.18 7.17969L457.18 7.17969Z"/>
</clipPath>
<g clip-path="url(#ClipPath)">
<path d="M486.324 31.826C484.603 31.7782 483.268 31.9545 482.15 32.4252C481.827 32.5546 481.31 32.5546 481.268 32.9601C481.44 33.1303 481.461 33.4087 481.612 33.6446C481.87 34.0726 482.322 34.6492 482.731 34.9484L484.108 35.9324C484.947 36.4452 485.894 36.7449 486.711 37.2581C487.185 37.5577 487.658 37.9426 488.132 38.2638C488.373 38.4348 488.519 38.7134 488.82 38.8198L488.82 38.7551C488.67 38.5633 488.626 38.2854 488.476 38.0706L487.83 37.4508C487.207 36.6169 486.431 35.8892 485.592 35.291C484.904 34.8204 483.398 34.179 483.118 33.3881L483.076 33.3402C483.548 33.2923 484.108 33.1259 484.56 32.9976C485.292 32.8058 485.959 32.848 486.711 32.6557L487.745 32.3561L487.745 32.1644C487.357 31.7796 487.078 31.2661 486.669 30.9029C485.572 29.962 484.366 29.0421 483.118 28.2724C482.451 27.8449 481.59 27.5663 480.88 27.2035C480.621 27.075 480.191 27.0108 480.041 26.7971C479.653 26.3274 479.438 25.7065 479.158 25.1502L477.394 21.4292C477.007 20.5951 476.769 19.7611 476.297 18.9913C474.08 15.3557 471.67 13.1532 467.968 10.9929C467.172 10.5438 466.226 10.3507 465.219 10.1158L463.605 10.0295C463.26 9.87997 462.917 9.47351 462.615 9.28082C461.389 8.51104 458.225 6.84301 457.321 9.04116C456.74 10.4312 458.182 11.7996 458.671 12.5057C459.038 12.9974 459.51 13.5535 459.77 14.1095C459.914 14.4728 459.962 14.8582 460.113 15.2431C460.457 16.184 460.78 17.2322 461.232 18.1094C461.473 18.5585 461.727 19.0296 462.028 19.4357C462.2 19.6753 462.502 19.7779 462.566 20.1627C462.264 20.5907 462.244 21.2316 462.072 21.7671C461.296 24.1837 461.598 27.1776 462.695 28.9569C463.04 29.4912 463.853 30.6679 464.955 30.2185C465.924 29.8335 465.708 28.6146 465.987 27.5452C466.053 27.2889 466.009 27.1177 466.138 26.9461L466.138 26.9941L467.021 28.769C467.688 29.8168 468.85 30.9077 469.818 31.6353C470.334 32.0202 470.743 32.6836 471.388 32.9185L471.388 32.8538L471.346 32.8538C471.217 32.662 471.023 32.5757 470.851 32.4261C470.463 32.0413 470.033 31.5706 469.732 31.1431C468.828 29.9456 468.032 28.6194 467.322 27.2509C466.977 26.588 466.676 25.8608 466.397 25.198C466.267 24.9412 466.267 24.5557 466.052 24.4282C465.729 24.8979 465.256 25.3054 465.018 25.8825C464.609 26.8018 464.567 27.9354 464.417 29.1117C464.33 29.1332 464.368 29.1117 464.33 29.1596C463.642 28.989 463.405 28.2824 463.147 27.6842C462.501 26.1658 462.393 23.7279 462.953 21.9741C463.103 21.525 463.75 20.1135 463.491 19.6858C463.361 19.2794 462.932 19.0446 462.695 18.7234C462.415 18.317 462.114 17.8041 461.921 17.3549C461.405 16.1566 461.146 14.8313 460.587 13.6335C460.328 13.0775 459.876 12.4999 459.51 11.9871C459.101 11.4095 458.65 11.003 458.327 10.319C458.219 10.0794 458.069 9.69879 458.241 9.44187C458.284 9.27076 458.37 9.20221 458.542 9.16387C458.821 8.92421 459.618 9.2281 459.898 9.3556C460.694 9.67673 461.361 9.97584 462.028 10.4245C462.329 10.6383 462.652 11.0447 463.04 11.1521L463.492 11.1521C464.181 11.3016 464.955 11.2 465.6 11.3917C466.74 11.756 467.773 12.29 468.699 12.868C471.518 14.643 473.842 17.1666 475.413 20.1824C475.671 20.6742 475.778 21.1234 476.016 21.6366C476.468 22.685 477.028 23.7539 477.478 24.781C477.931 25.7861 478.361 26.8134 479.006 27.6473C479.33 28.0964 480.62 28.3313 481.201 28.5666C481.632 28.7584 482.298 28.931 482.686 29.1659C483.418 29.615 484.149 30.1283 484.837 30.6201C485.181 30.8761 486.258 31.411 486.322 31.8376L486.324 31.826ZM464.379 13.2419C464.082 13.2393 463.786 13.2752 463.498 13.3488L463.498 13.3967L463.54 13.3967C463.712 13.739 464.014 13.9743 464.229 14.2739L464.724 15.3006L464.767 15.2527C465.068 15.0389 465.219 14.6966 465.219 14.1838C465.09 14.0342 465.069 13.8842 464.961 13.7346C464.832 13.5209 464.552 13.4135 464.379 13.2429L464.379 13.2419Z" fill="#ffffff" fill-rule="evenodd" opacity="1" stroke="none"/>
</g>
</g>
</g>
<path d="M321.711 50.5L310.886 50.5C305.061 50.5 300.339 55.222 300.339 61.0469L300.339 84.9531C300.339 90.778 305.061 95.5 310.886 95.5L322.474 95.5L372.635 95.5L384.953 95.5C390.778 95.5 395.5 90.778 395.5 84.9531L395.5 61.0469C395.5 55.222 390.778 50.5 384.953 50.5L371.872 50.5L321.711 50.5Z" fill="#000000" fill-rule="nonzero" opacity="1" stroke="#ffffff" stroke-linecap="butt" stroke-linejoin="miter" stroke-width="0.5"/>
<g opacity="1">
<path d="M411.047 0.5L434.953 0.5C440.778 0.5 445.5 5.222 445.5 11.0469L445.5 34.9531C445.5 40.778 440.778 45.5 434.953 45.5L411.047 45.5C405.222 45.5 400.5 40.778 400.5 34.9531L400.5 11.0469C400.5 5.222 405.222 0.5 411.047 0.5Z" fill="#000000" fill-rule="nonzero" opacity="1" stroke="#ffffff" stroke-linecap="butt" stroke-linejoin="miter" stroke-width="0.5"/>
<clipPath id="ClipPath_2">
<path d="M405.422 5.42187L440.578 5.42187L440.578 5.42187L440.578 40.5781L440.578 40.5781L405.422 40.5781L405.422 40.5781L405.422 5.42187L405.422 5.42187Z"/>
</clipPath>
<g clip-path="url(#ClipPath_2)">
<path d="M439.2 31.1682C437.324 32.1468 427.606 36.1423 425.537 37.2205C423.468 38.2989 422.319 38.2887 420.684 37.5076C419.049 36.7266 408.708 32.5495 406.844 31.6585C405.912 31.2129 405.424 30.8383 405.424 30.4841L405.424 26.9305C405.424 26.9305 418.888 23.9993 421.063 23.2192C423.237 22.4391 423.989 22.4111 425.84 23.0888C427.691 23.7662 438.751 25.7617 440.579 26.4318L440.579 29.9362C440.579 30.2875 440.157 30.6816 439.202 31.1701L439.2 31.1682Z" fill="#adadad" fill-rule="nonzero" opacity="1" stroke="none"/>
<path d="M439.2 27.6136C437.324 28.5921 427.606 32.5876 425.537 33.6659C423.468 34.7443 422.319 34.7339 420.684 33.9529C419.049 33.1719 408.708 28.9947 406.844 28.1038C404.98 27.2128 404.943 26.6005 406.772 25.8837L421.062 20.3513C423.235 19.5723 423.988 19.5433 425.839 20.2209C427.69 20.8985 437.349 24.743 439.176 25.4233C441.003 26.1038 441.075 26.6443 439.198 27.6229L439.2 27.6136Z" fill="#ffffff" fill-rule="nonzero" opacity="1" stroke="none"/>
<path d="M439.2 25.373C437.324 26.3516 427.606 30.3471 425.537 31.4254C423.468 32.5038 422.319 32.4934 420.684 31.7124C419.049 30.9314 408.708 26.7542 406.844 25.8633C405.912 25.4177 405.424 25.0431 405.424 24.6889L405.424 21.1351C405.424 21.1351 418.888 18.204 421.063 17.424C423.237 16.6439 423.989 16.6159 425.84 17.2935C427.691 17.9711 438.751 19.9665 440.579 20.6366L440.579 24.141C440.579 24.4922 440.157 24.8865 439.202 25.3748L439.2 25.373Z" fill="#adadad" fill-rule="nonzero" opacity="1" stroke="none"/>
<path d="M439.2 21.8193C437.324 22.7979 427.606 26.7934 425.537 27.8718C423.468 28.95 422.319 28.9398 420.684 28.1588C419.049 27.3777 408.708 23.2006 406.844 22.3095C404.98 21.4185 404.943 20.8062 406.772 20.0894L421.062 14.5581C423.235 13.778 423.988 13.75 425.839 14.4276C427.69 15.1052 437.349 18.9505 439.178 19.6188C441.007 20.2872 441.076 20.8398 439.2 21.8184L439.2 21.8193Z" fill="#ffffff" fill-rule="nonzero" opacity="1" stroke="none"/>
<path d="M439.2 19.3634C437.324 20.342 427.606 24.3375 425.537 25.4168C423.468 26.4961 422.319 26.4849 420.684 25.7039C419.049 24.9229 408.708 20.7456 406.844 19.8546C405.912 19.4091 405.424 19.0346 405.424 18.6804L405.424 15.1247C405.424 15.1247 418.888 12.1936 421.063 11.4135C423.237 10.6334 423.989 10.6055 425.84 11.283C427.691 11.9606 438.751 13.956 440.579 14.6261L440.579 18.1305C440.579 18.4819 440.157 18.876 439.202 19.3645L439.2 19.3634Z" fill="#adadad" fill-rule="nonzero" opacity="1" stroke="none"/>
<path d="M439.2 15.8088C437.324 16.7874 427.606 20.7829 425.537 21.8613C423.468 22.9395 422.319 22.9293 420.684 22.1483C419.049 21.3673 408.708 17.19 406.844 16.2991C404.98 15.4081 404.943 14.7957 406.772 14.079L421.062 8.54762C423.235 7.76754 423.988 7.73957 425.839 8.41713C427.69 9.0947 437.349 12.9401 439.178 13.6084C441.007 14.2766 441.076 14.8293 439.2 15.8079L439.2 15.8088Z" fill="#ffffff" fill-rule="nonzero" opacity="1" stroke="none"/>
<path d="M423.878 14.3437L422.777 12.5123L419.259 12.1955L421.884 11.2485L421.096 9.79463L423.553 10.7546L425.87 9.99593L425.243 11.4983L427.605 12.3837L424.56 12.7006L423.878 14.3437ZM418.01 17.9897L426.156 16.739L423.696 20.3476L418.01 17.9897Z" fill="#000000" fill-rule="nonzero" opacity="1" stroke="none"/>
<path d="M415.815 16.6747C418.219 16.6747 420.169 15.919 420.169 14.9868C420.169 14.0546 418.219 13.2989 415.815 13.2989C413.41 13.2989 411.46 14.0546 411.46 14.9868C411.46 15.919 413.41 16.6747 415.815 16.6747Z" fill="#000000" fill-rule="nonzero" opacity="1" stroke="none"/>
<path d="M436.028 14.7408L431.209 16.6439L431.206 12.8348L436.028 14.7408Z" fill="#8b8b8b" fill-rule="nonzero" opacity="1" stroke="none"/>
<path d="M431.21 16.6439L430.688 16.8489L425.874 14.9458L431.207 12.8357L431.21 16.6439Z" fill="#adadad" fill-rule="nonzero" opacity="1" stroke="none"/>
</g>
</g>
<g opacity="1">
<clipPath id="ClipPath_3">
<path d="M511.047 0.5L534.953 0.5C540.778 0.5 545.5 5.222 545.5 11.0469L545.5 34.9531C545.5 40.778 540.778 45.5 534.953 45.5L511.047 45.5C505.222 45.5 500.5 40.778 500.5 34.9531L500.5 11.0469C500.5 5.222 505.222 0.5 511.047 0.5Z"/>
</clipPath>
<g clip-path="url(#ClipPath_3)">
<path d="M511.047 0.5C505.222 0.5 500.5 5.22199 500.5 11.0469L500.5 34.9531C500.5 40.778 505.222 45.5 511.047 45.5L530.112 45.5C529.799 44.5784 529.555 43.1189 529.417 41.453C529.298 40.02 529.259 38.4346 529.324 36.9055C529.307 36.6795 529.296 36.5325 529.296 36.5325C529.296 36.5325 528.967 34.3159 528.492 32.495C528.283 31.6868 528.044 30.9559 527.793 30.5322C527.664 30.3137 527.807 29.4158 528.167 28.0861C528.378 28.4501 529.268 30.0077 529.447 30.5097C529.648 31.0771 529.691 31.2397 529.691 31.2397C529.691 31.2397 529.202 28.731 528.402 27.2671C528.577 26.6752 528.787 26.0212 529.024 25.3219C529.302 25.8083 529.932 26.9252 530.16 27.4545C530.181 27.5035 530.2 27.5496 530.214 27.5875C530.246 27.6793 530.273 27.7572 530.298 27.8285C530.426 28.2008 530.458 28.3193 530.458 28.3193C530.458 28.3193 530.41 28.0757 530.321 27.6999C530.284 27.5411 530.237 27.3545 530.186 27.1556C529.984 26.3806 529.677 25.366 529.285 24.571C530.292 19.3337 533.535 12.4761 537.029 8.77383C537.33 8.45505 537.633 8.15663 537.936 7.88765C539.978 6.07708 542.048 5.46552 543.757 6.988C544.993 8.08976 545.499 9.61155 545.5 11.3634L545.5 11.0469C545.5 5.22199 540.778 0.5 534.953 0.5L511.047 0.5Z" fill="#d9d9d9" fill-rule="nonzero" opacity="1" stroke="none"/>
<path d="M511.047 0.5C505.222 0.5 500.5 5.22199 500.5 11.0469L500.5 34.9531C500.5 40.778 505.222 45.5 511.047 45.5L530.112 45.5C529.799 44.5784 529.555 43.1189 529.417 41.453C529.298 40.02 529.259 38.4346 529.324 36.9055C529.307 36.6795 529.296 36.5325 529.296 36.5325C529.296 36.5325 528.967 34.3159 528.492 32.495C528.283 31.6868 528.044 30.9559 527.793 30.5322C527.664 30.3137 527.807 29.4158 528.167 28.0861C528.378 28.4501 529.268 30.0077 529.447 30.5097C529.648 31.0771 529.691 31.2397 529.691 31.2397C529.691 31.2397 529.202 28.731 528.402 27.2671C528.577 26.6752 528.787 26.0212 529.024 25.3219C529.302 25.8083 529.932 26.9252 530.16 27.4545C530.181 27.5035 530.2 27.5496 530.214 27.5875C530.246 27.6793 530.273 27.7572 530.298 27.8285C530.426 28.2008 530.458 28.3193 530.458 28.3193C530.458 28.3193 530.41 28.0757 530.321 27.6999C530.284 27.5411 530.237 27.3545 530.186 27.1556C529.984 26.3806 529.677 25.366 529.285 24.571C530.292 19.3337 533.535 12.4761 537.029 8.77383C537.33 8.45505 537.633 8.15663 537.936 7.88765C539.978 6.07708 542.048 5.46552 543.757 6.988C544.993 8.08976 545.499 9.61155 545.5 11.3634L545.5 11.0469C545.5 5.22199 540.778 0.5 534.953 0.5L511.047 0.5Z" fill="url(#LinearGradient_3)" fill-rule="nonzero" opacity="1" stroke="#ffffff" stroke-linecap="butt" stroke-linejoin="miter" stroke-width="0.5"/>
<path d="M543.757 6.988C542.048 5.46552 539.978 6.07708 537.936 7.88765C537.633 8.15663 537.33 8.45505 537.029 8.77383C533.535 12.4761 530.292 19.3337 529.285 24.571C529.677 25.366 529.984 26.3806 530.186 27.1556C530.237 27.3545 530.284 27.5411 530.321 27.6999C530.41 28.0757 530.458 28.3193 530.458 28.3193C530.458 28.3193 530.426 28.2008 530.298 27.8285C530.273 27.7572 530.246 27.6793 530.214 27.5875C530.2 27.5496 530.181 27.5035 530.16 27.4545C529.932 26.9252 529.302 25.8083 529.024 25.3219C528.787 26.0212 528.577 26.6752 528.402 27.2671C529.202 28.731 529.691 31.2397 529.691 31.2397C529.691 31.2397 529.648 31.0771 529.447 30.5097C529.268 30.0077 528.378 28.4501 528.167 28.0861C527.807 29.4158 527.664 30.3137 527.793 30.5322C528.044 30.9559 528.283 31.6868 528.492 32.495C528.967 34.3159 529.296 36.5325 529.296 36.5325C529.296 36.5325 529.307 36.6795 529.324 36.9055C529.259 38.4346 529.298 40.02 529.417 41.453C529.574 43.3498 529.869 44.9795 530.246 45.8516L530.502 45.7122C529.949 43.9941 529.724 41.7423 529.822 39.1453C529.971 35.176 530.886 30.3891 532.575 25.3999C535.43 17.8683 539.391 11.8254 543.016 8.93949C539.712 11.9199 535.24 21.5674 533.901 25.14C532.403 29.1406 531.34 32.8949 530.7 36.4917C531.805 33.1197 535.376 31.6702 535.376 31.6702C535.376 31.6702 537.127 29.5127 539.174 26.4302C537.948 26.7095 535.935 27.1876 535.26 27.4706C534.266 27.8874 533.998 28.0296 533.998 28.0296C533.998 28.0296 537.22 26.0697 539.984 25.1823C543.786 19.2014 547.928 10.7046 543.757 6.988" fill="#000000" fill-rule="nonzero" opacity="1" stroke="#ffffff" stroke-linecap="butt" stroke-linejoin="miter" stroke-width="0.5"/>
<path d="M505.513 9.11328C504.975 9.11328 504.537 9.27055 504.201 9.58494C503.866 9.8996 503.695 10.3121 503.695 10.8174C503.695 11.0793 503.738 11.3181 503.821 11.537C503.904 11.7562 504.034 11.9593 504.208 12.1429C504.383 12.3266 504.732 12.5761 505.252 12.8934C505.89 13.2778 506.307 13.5897 506.508 13.8333C506.708 14.0766 506.808 14.3316 506.808 14.5975C506.808 14.9535 506.689 15.2377 506.445 15.4513C506.2 15.665 505.873 15.7715 505.468 15.7715C505.04 15.7715 504.668 15.6228 504.348 15.3274C504.028 15.0316 503.867 14.6404 503.863 14.15L503.664 14.15L503.664 15.9299L503.863 15.9299C503.924 15.7613 504.008 15.6751 504.118 15.6751C504.171 15.6751 504.294 15.7111 504.488 15.7784C504.957 15.9433 505.343 16.0228 505.646 16.0228C506.168 16.0228 506.614 15.8423 506.986 15.4754C507.357 15.1087 507.544 14.6664 507.544 14.15C507.544 13.7495 507.42 13.3933 507.178 13.0827C506.935 12.7718 506.463 12.4102 505.758 11.9948C505.151 11.635 504.757 11.342 504.575 11.1135C504.393 10.8854 504.299 10.633 504.299 10.3561C504.299 10.0566 504.411 9.816 504.631 9.63658C504.851 9.457 505.139 9.36804 505.499 9.36804C505.905 9.36804 506.244 9.48689 506.511 9.72609C506.779 9.9657 506.933 10.2977 506.979 10.7245L507.178 10.7245L507.178 9.18213L506.993 9.18213C506.97 9.26076 506.949 9.31104 506.93 9.33362C506.911 9.35607 506.875 9.36804 506.822 9.36804C506.757 9.36804 506.643 9.34132 506.48 9.28885C506.131 9.17291 505.809 9.11328 505.513 9.11328ZM512.014 9.11328C511.358 9.11328 510.762 9.26586 510.224 9.57116C509.685 9.87591 509.258 10.2991 508.943 10.8381C508.628 11.377 508.472 11.9494 508.472 12.5594C508.472 13.379 508.744 14.1091 509.292 14.749C509.84 15.3885 510.498 15.787 511.26 15.9402C511.434 16.0298 511.684 16.2612 512.01 16.6356C512.378 17.0582 512.689 17.363 512.945 17.5445C513.201 17.7261 513.477 17.8592 513.769 17.9473C514.061 18.035 514.376 18.0781 514.718 18.0781C515.131 18.0781 515.501 18.0072 515.827 17.8612L515.754 17.6822C515.565 17.7496 515.363 17.7821 515.15 17.7821C514.862 17.7821 514.57 17.6882 514.278 17.4998C513.986 17.3108 513.621 16.9504 513.186 16.4187C512.981 16.164 512.84 16.0032 512.76 15.9402C513.595 15.7795 514.28 15.3806 514.815 14.7421C515.35 14.104 515.618 13.3757 515.618 12.5594C515.618 11.5903 515.268 10.7757 514.575 10.1117C513.88 9.44753 513.026 9.11328 512.014 9.11328ZM516.072 9.11328L516.082 9.32329C516.519 9.32329 516.764 9.45025 516.818 9.70544C516.839 9.79674 516.848 9.96531 516.85 10.2081L516.846 14.8523C516.843 15.1992 516.792 15.4206 516.696 15.5167C516.6 15.6122 516.437 15.6719 516.201 15.6958L516.19 15.9058L520.545 15.9058L520.656 14.8523L520.458 14.8523C520.401 15.1393 520.27 15.3449 520.063 15.4617C519.855 15.5793 519.488 15.6372 518.957 15.6372L518.545 15.6372C518.068 15.6372 517.791 15.4669 517.718 15.1243C517.703 15.0565 517.698 14.9838 517.698 14.9039L517.715 10.2081C517.715 9.86176 517.759 9.62969 517.851 9.51608C517.944 9.40288 518.111 9.33953 518.353 9.32329L518.343 9.11328L516.072 9.11328L516.072 9.11328ZM512.083 9.36804C512.823 9.36804 513.428 9.6556 513.894 10.2356C514.361 10.8158 514.592 11.611 514.592 12.618C514.592 13.5721 514.358 14.3361 513.887 14.9108C513.417 15.4853 512.791 15.7715 512.014 15.7715C511.267 15.7715 510.661 15.4764 510.196 14.8833C509.731 14.2902 509.501 13.5201 509.501 12.5732C509.501 11.6002 509.734 10.8212 510.203 10.2391C510.671 9.65748 511.298 9.36804 512.083 9.36804ZM522.097 10.3664C521.991 10.3664 521.91 10.4018 521.85 10.4732C521.788 10.5442 521.769 10.6303 521.79 10.7348C521.811 10.8362 521.869 10.9251 521.961 10.9999C522.053 11.0746 522.152 11.1135 522.258 11.1135C522.361 11.1135 522.439 11.0746 522.495 10.9999C522.551 10.9251 522.568 10.8362 522.548 10.7348C522.526 10.6303 522.47 10.5442 522.384 10.4732C522.296 10.4018 522.2 10.3664 522.097 10.3664ZM524.969 11.0791C524.788 11.7641 524.397 12.1347 523.797 12.1945L523.803 12.3908L524.505 12.3908L524.491 14.7111C524.492 15.1079 524.504 15.372 524.533 15.5064C524.602 15.8282 524.815 15.9918 525.171 15.9918C525.687 15.9918 526.228 15.6819 526.794 15.0623L526.623 14.9177C526.214 15.3257 525.853 15.5305 525.538 15.5305C525.344 15.5305 525.224 15.4205 525.178 15.2035C525.166 15.1507 525.161 15.0891 525.161 15.0175L525.168 12.3908L526.239 12.3908L526.229 12.0775L525.171 12.0775L525.171 11.0791L524.969 11.0791L524.969 11.0791ZM529.111 11.9535C528.511 11.9535 528.024 12.2405 527.645 12.8108C527.268 13.382 527.151 14.0149 527.3 14.7111C527.387 15.119 527.561 15.4351 527.827 15.6579C528.092 15.8806 528.429 15.9918 528.831 15.9918C529.206 15.9918 529.728 15.8982 529.948 15.7095C530.168 15.521 530.371 15.2156 530.559 14.7972L530.408 14.6423C530.11 15.185 529.506 15.4582 529.051 15.4582C528.426 15.4582 528.043 15.1196 527.9 14.4461C527.881 14.3601 527.867 14.2677 527.858 14.1706C528.602 14.0544 529.166 13.8485 529.547 13.5509C529.927 13.2532 530.309 12.9376 530.238 12.6042C530.195 12.4061 530.091 12.2503 529.931 12.1326C529.768 12.0148 529.346 11.9535 529.111 11.9535ZM522.561 11.9776L521.27 12.2703L521.27 12.4975L521.717 12.4424C521.933 12.4424 522.061 12.539 522.101 12.7316C522.114 12.796 522.123 12.8865 522.125 13.0001L522.111 15.083C522.108 15.3712 522.075 15.5387 522.01 15.589C521.944 15.6394 521.771 15.6648 521.49 15.6648L521.483 15.861L523.531 15.861L523.528 15.6648C523.243 15.6648 523.059 15.6426 522.977 15.5994C522.896 15.5564 522.84 15.4782 522.816 15.3584C522.797 15.272 522.789 15.1233 522.788 14.9177L522.795 11.9776L522.561 11.9776L522.561 11.9776ZM528.783 12.3632C528.907 12.3632 529.028 12.4107 529.149 12.5044C529.269 12.5977 529.341 12.7015 529.365 12.8142C529.482 13.3679 528.984 13.7508 527.865 13.9641C527.833 13.5603 527.904 13.1938 528.085 12.8624C528.264 12.5314 528.498 12.3632 528.783 12.3632Z" fill="#ffffff" fill-rule="nonzero" opacity="1" stroke="none"/>
</g>
</g>
<g opacity="1">
<use fill="#000000" fill-rule="nonzero" opacity="1" stroke="#ffffff" stroke-linecap="butt" stroke-linejoin="miter" stroke-width="0.5" xlink:href="#Fill"/>
<clipPath id="ClipPath_4">
<use xlink:href="#Fill"/>
</clipPath>
<g clip-path="url(#ClipPath_4)">
<path d="M261.306 67.8435C260.106 66.7182 258.161 66.7182 256.961 67.8435C255.762 68.9684 255.762 70.7921 256.961 71.9174C258.161 73.0421 260.106 73.0421 261.306 71.9174L284.371 71.9174C285.571 73.0421 287.516 73.0421 288.716 71.9174C289.916 70.7921 289.916 68.9684 288.716 67.8435C287.516 66.7182 285.571 66.7182 284.371 67.8435L261.306 67.8435Z" fill="#ffb13b" fill-rule="nonzero" opacity="1" stroke="none"/>
<path d="M266.22 60.7938C266.22 59.2022 264.845 57.9126 263.148 57.9126C261.451 57.9126 260.075 59.2022 260.075 60.7938C260.075 62.3847 261.451 63.6743 263.148 63.6743L279.457 78.9672C279.457 80.5582 280.833 81.8477 282.529 81.8477C284.226 81.8477 285.601 80.5582 285.601 78.9672C285.601 77.3763 284.226 76.0868 282.529 76.0868L266.22 60.7938Z" fill="#ffb13b" fill-rule="nonzero" opacity="1" stroke="none"/>
<path d="M275.011 59.0669C276.211 57.9415 276.211 56.1177 275.011 54.9923C273.811 53.8676 271.866 53.8676 270.666 54.9923C269.467 56.1177 269.467 57.9415 270.666 59.0669L270.666 80.6942C269.467 81.8189 269.467 83.6433 270.666 84.7679C271.866 85.8935 273.811 85.8935 275.011 84.7679C276.211 83.6433 276.211 81.8189 275.011 80.6942L275.011 59.0669Z" fill="#ffb13b" fill-rule="nonzero" opacity="1" stroke="none"/>
<path d="M282.529 63.6743C284.226 63.6743 285.601 62.3848 285.601 60.7938C285.601 59.2022 284.226 57.9126 282.529 57.9126C280.833 57.9126 279.457 59.2022 279.457 60.7938L263.148 76.0868C261.451 76.0868 260.075 77.3763 260.075 78.9672C260.075 80.5582 261.451 81.8477 263.148 81.8477C264.845 81.8477 266.22 80.5582 266.22 78.9672L282.529 63.6743Z" fill="#ffb13b" fill-rule="nonzero" opacity="1" stroke="none"/>
<path d="M261.306 67.8435C260.106 66.7182 258.161 66.7182 256.961 67.8435C255.762 68.9684 255.762 70.7921 256.961 71.9174C258.161 73.0421 260.106 73.0421 261.306 71.9174L284.371 71.9174C285.571 73.0421 287.516 73.0421 288.716 71.9174C289.916 70.7921 289.916 68.9684 288.716 67.8435C287.516 66.7182 285.571 66.7182 284.371 67.8435L261.306 67.8435Z" fill="#f9f9f9" fill-rule="nonzero" opacity="1" stroke="none"/>
<path d="M266.22 60.7938C266.22 59.2021 264.845 57.9126 263.148 57.9126C261.451 57.9126 260.075 59.2021 260.075 60.7938C260.075 62.3847 261.451 63.6743 263.148 63.6743L279.457 78.9672C279.457 80.5582 280.833 81.8477 282.529 81.8477C284.226 81.8477 285.601 80.5582 285.601 78.9672C285.601 77.3763 284.226 76.0868 282.529 76.0868L266.22 60.7938Z" fill="#f9f9f9" fill-rule="nonzero" opacity="1" stroke="none"/>
<path d="M275.011 59.0669C276.211 57.9415 276.211 56.1177 275.011 54.9923C273.811 53.8676 271.866 53.8676 270.666 54.9923C269.467 56.1177 269.467 57.9415 270.666 59.0669L270.666 80.6942C269.467 81.8189 269.467 83.6433 270.666 84.7679C271.866 85.8935 273.811 85.8935 275.011 84.7679C276.211 83.6433 276.211 81.8189 275.011 80.6942L275.011 59.0669Z" fill="#f9f9f9" fill-rule="nonzero" opacity="1" stroke="none"/>
<path d="M282.529 63.6743C284.226 63.6743 285.601 62.3847 285.601 60.7938C285.601 59.2021 284.226 57.9126 282.529 57.9126C280.833 57.9126 279.457 59.2021 279.457 60.7938L263.148 76.0868C261.451 76.0868 260.075 77.3763 260.075 78.9672C260.075 80.5582 261.451 81.8477 263.148 81.8477C264.845 81.8477 266.22 80.5582 266.22 78.9672L282.529 63.6743Z" fill="#f9f9f9" fill-rule="nonzero" opacity="1" stroke="none"/>
<path d="M262.415 71.8995L283.676 71.8995L287.562 77.8428L283.676 86.0002C283.676 89.3138 282.324 91.8512 280.558 91.8512L265.533 91.8512C263.767 91.8512 262.415 89.3138 262.415 86.0002L258.115 77.7528L262.415 71.8995Z" fill="#000000" fill-opacity="0.9" fill-rule="nonzero" opacity="1" stroke="none"/>
<g opacity="1">
<path d="M257.427 82.3659C256.517 81.513 255.954 80.3355 255.954 79.035C255.954 76.4326 258.206 74.3225 260.98 74.3225C263.755 74.3225 266.006 76.4326 266.006 79.035L263.063 79.035C263.063 77.957 262.129 77.0835 260.98 77.0835C259.83 77.0835 258.899 77.957 258.899 79.035C258.899 79.5733 259.132 80.0614 259.507 80.413L259.508 80.413C259.885 80.7681 260.199 80.8704 260.98 80.9871C262.368 81.1224 263.624 81.5144 264.534 82.3673C265.444 83.2207 266.006 84.3983 266.006 85.6989C266.006 88.3012 263.755 90.412 260.98 90.412C258.206 90.412 255.954 88.3012 255.954 85.6989L258.899 85.6989C258.899 86.777 259.83 87.6517 260.98 87.6517C262.129 87.6517 263.063 86.777 263.063 85.6989C263.063 85.1605 262.83 84.6738 262.454 84.3208L262.453 84.3208C262.076 83.9671 261.535 83.8456 260.98 83.7481L260.98 83.7474C259.634 83.5539 258.337 83.2193 257.427 82.3659Z" fill="#ffffff" fill-rule="nonzero" opacity="1" stroke="none"/>
<path d="M277.864 74.3225L274.309 90.412L271.365 90.412L267.812 74.3225L270.757 74.3225L272.84 83.746L274.92 74.3225L277.864 74.3225Z" fill="#ffffff" fill-rule="nonzero" opacity="1" stroke="none"/>
<path d="M284.697 80.9864L289.722 80.9864L289.722 85.6982L289.723 85.6982C289.723 88.3012 287.472 90.412 284.697 90.412C281.921 90.412 279.671 88.3012 279.671 85.6982L279.671 79.0343L279.67 79.0343C279.67 76.4319 281.921 74.3225 284.697 74.3225C287.471 74.3225 289.722 76.4319 289.722 79.0343L286.778 79.0343C286.778 77.9577 285.845 77.0828 284.697 77.0828C283.547 77.0828 282.615 77.9577 282.615 79.0343L282.615 85.6982C282.615 86.7763 283.547 87.6503 284.697 87.6503C285.845 87.6503 286.777 86.7763 286.778 85.6996L286.778 83.7481L284.697 83.7481L284.697 80.9864Z" fill="#ffffff" fill-rule="nonzero" opacity="1" stroke="none"/>
</g>
</g>
</g>
<g opacity="1">
<path d="M461.047 50.5L484.953 50.5C490.778 50.5 495.5 55.222 495.5 61.0469L495.5 84.9531C495.5 90.778 490.778 95.5 484.953 95.5L461.047 95.5C455.222 95.5 450.5 90.778 450.5 84.9531L450.5 61.0469C450.5 55.222 455.222 50.5 461.047 50.5Z" fill="#000000" fill-rule="nonzero" opacity="1" stroke="#ffffff" stroke-linecap="butt" stroke-linejoin="miter" stroke-width="0.5"/>
<g opacity="1">
<path d="M473.565 60.2735C472.535 59.2422 470.864 59.2422 469.834 60.2735L459.398 70.7232C458.37 71.7526 458.37 73.42 459.398 74.4494L469.775 84.8402C470.805 85.8715 472.476 85.8715 473.506 84.8402L483.942 74.3903C484.97 73.3609 484.97 71.6935 483.942 70.6641L473.565 60.2735Z" fill="#8b8b8b" fill-rule="nonzero" opacity="1" stroke="none"/>
<path d="M477.211 60.4467L476.838 60.8198L476.838 62.1895L477.164 62.5162L478.889 62.5162L478.889 63.8397L467.483 75.4151L467.483 62.5327L469.379 62.5327L469.768 62.1433L469.768 60.7573L469.409 60.4795L459.434 60.4795L459.108 60.8062L459.108 62.2222L459.44 62.5544L461.174 62.5544L461.174 84.8153C461.174 85.6542 461.792 86.3652 462.622 86.4832L462.622 86.4832C463.156 86.5592 463.694 86.3747 464.07 85.9869L487.373 61.9089L487.373 60.82L487 60.4469L477.211 60.4467Z" fill="#ffffff" fill-rule="nonzero" opacity="1" stroke="none"/>
</g>
</g>
<g opacity="1">
<path d="M22.449 0.5L11.0469 0.5C5.222 0.5 0.499999 5.222 0.5 11.0469L0.5 34.9531C0.500001 40.778 5.222 45.5 11.0469 45.5L23.0491 45.5L123.049 45.5L134.953 45.5C140.778 45.5 145.5 40.778 145.5 34.9531L145.5 11.0469C145.5 5.222 140.778 0.5 134.953 0.5L122.449 0.5L22.449 0.5Z" fill="#000000" fill-rule="nonzero" opacity="1" stroke="#ffffff" stroke-linecap="butt" stroke-linejoin="miter" stroke-width="0.5"/>
<g opacity="1">
<path d="M57.7678 17.7166L65.5096 17.6872L65.5096 20.5858L57.7086 20.5858C57.7086 20.5858 56.7446 20.5858 56.7427 21.5256C56.7423 21.7735 56.7427 22.4383 56.7427 22.4383L66.5798 22.4383L66.5798 25.3589L56.7427 25.3628C56.7427 25.3628 56.7392 25.9296 56.7437 26.512C56.751 27.4582 57.7613 27.4591 57.7613 27.4591L67.7029 27.4582L67.7029 30.123L57.7678 30.123C55.6049 30.123 53.8516 28.5029 53.8516 26.5046L53.8516 21.335C53.8516 19.3366 55.6049 17.7166 57.7678 17.7166Z" fill="#ffffff" fill-rule="nonzero" opacity="1" stroke="#ffffff" stroke-linecap="butt" stroke-linejoin="miter" stroke-width="0.5"/>
<path d="M73.0357 17.6872L81.3826 17.6872C83.4726 17.6872 85.1669 19.3964 85.1669 21.5048L85.1669 30.1248L82.4401 30.123C82.4401 30.123 82.4401 22.6619 82.4401 21.6238C82.4401 20.5858 81.6212 20.5872 81.6212 20.5872L72.8072 20.5872C72.8072 20.5872 72.0679 20.5858 72.0679 21.6238C72.0679 24.0149 72.0679 30.123 72.0679 30.123L69.2514 30.1356L69.2514 21.5048C69.2514 19.3964 70.9457 17.6872 73.0357 17.6872Z" fill="#ffffff" fill-rule="nonzero" opacity="1" stroke="#ffffff" stroke-linecap="butt" stroke-linejoin="miter" stroke-width="0.5"/>
<path d="M106.531 17.6872L106.531 34.8481L109.424 34.8481L109.424 30.1208L117.842 30.2233C119.855 30.2233 121.487 28.5114 121.487 26.4015L121.487 21.509C121.487 19.3991 119.855 17.6872 117.842 17.6872L106.531 17.6872ZM109.424 20.5863L117.757 20.5863C118.176 20.5863 118.514 20.9127 118.514 21.3153L118.514 26.7319C118.514 27.1345 118.176 27.4609 117.757 27.4609L109.424 27.4609L109.424 20.5863Z" fill="#ffffff" fill-rule="nonzero" opacity="1" stroke="#ffffff" stroke-linecap="butt" stroke-linejoin="miter" stroke-width="0.5"/>
<path d="M126.625 17.6872L135.005 17.6872L135.005 20.5858C135.005 20.5858 126.856 20.5858 126.628 20.5858C126.237 20.5858 125.523 20.6904 125.523 21.6107C125.523 22.5311 126.192 22.5736 126.556 22.5736C126.713 22.5736 130.29 22.5736 132.82 22.5736C135.351 22.5736 136.962 24.022 136.962 26.3054C136.962 28.5887 135.246 30.123 132.979 30.123L122.563 30.123L122.563 27.4608C122.563 27.4608 132.576 27.4582 132.828 27.4582C133.1 27.4582 134.084 27.4582 134.084 26.339C134.084 25.2198 133.069 25.3609 132.827 25.3609C132.585 25.3609 129.156 25.3714 126.625 25.3714C124.094 25.3714 122.641 23.4259 122.641 21.5048C122.641 19.5838 124.425 17.6872 126.625 17.6872Z" fill="#ffffff" fill-rule="nonzero" opacity="1" stroke="#ffffff" stroke-linecap="butt" stroke-linejoin="miter" stroke-width="0.5"/>
<path d="M25.9946 17.6872C23.8653 17.6872 22.1386 19.3949 22.1386 21.5033L22.1386 26.3047C22.1386 28.4131 23.8652 30.1208 25.9946 30.1208L32.7837 30.1208C34.9131 30.1208 36.6397 28.4131 36.6397 26.3047L36.6397 21.5033C36.6397 19.3949 34.9131 17.6872 32.7837 17.6872L25.9946 17.6872ZM26.1427 20.5407L32.704 20.5407C33.3022 20.5407 33.7862 20.9779 33.7862 21.5204L33.7862 26.4756C33.7862 27.018 33.3022 27.4609 32.704 27.4609L26.1427 27.4609C25.5445 27.4609 25.0605 27.018 25.0605 26.4756L25.0605 21.5204C25.0605 20.9779 25.5445 20.5407 26.1427 20.5407Z" fill="#ffffff" fill-rule="nonzero" opacity="1" stroke="#ffffff" stroke-linecap="butt" stroke-linejoin="miter" stroke-width="0.5"/>
<path d="M102.126 17.6872L104.834 17.6872L104.834 30.1221L102.126 30.1221L102.126 17.6872Z" fill="#ffffff" fill-rule="nonzero" opacity="1" stroke="#ffffff" stroke-linecap="butt" stroke-linejoin="miter" stroke-width="0.5"/>
<path d="M37.6307 17.6872L37.6307 34.8481L40.5241 34.8481L40.5241 30.1208L48.9422 30.2233C50.9554 30.2233 52.5874 28.5114 52.5874 26.4015L52.5874 21.509C52.5874 19.3991 50.9554 17.6872 48.9422 17.6872L37.6307 17.6872ZM40.5241 20.5863L48.8568 20.5863C49.2763 20.5863 49.6143 20.9127 49.6143 21.3153L49.6143 26.7319C49.6143 27.1345 49.2763 27.4609 48.8568 27.4609L40.5241 27.4609L40.5241 20.5863Z" fill="#ffffff" fill-rule="nonzero" opacity="1" stroke="#ffffff" stroke-linecap="butt" stroke-linejoin="miter" stroke-width="0.5"/>
<path d="M90.6876 17.6872L99.0679 17.6872L99.0679 20.5858C99.0679 20.5858 90.9187 20.5858 90.6903 20.5858C90.3001 20.5858 89.5856 20.6904 89.5856 21.6107C89.5856 22.5311 90.2549 22.5736 90.619 22.5736C90.7758 22.5736 94.3523 22.5736 96.8831 22.5736C99.414 22.5736 101.025 24.022 101.025 26.3054C101.025 28.5887 99.3091 30.123 97.0415 30.123L86.6252 30.123L86.6252 27.4608C86.6252 27.4608 96.6387 27.4582 96.8907 27.4582C97.1623 27.4582 98.1468 27.4582 98.1468 26.339C98.1468 25.2198 97.1316 25.3609 96.8895 25.3609C96.6475 25.3609 93.2186 25.3714 90.6876 25.3714C88.1567 25.3714 86.704 23.4259 86.704 21.5048C86.704 19.5838 88.4875 17.6872 90.6876 17.6872Z" fill="#ffffff" fill-rule="nonzero" opacity="1" stroke="#ffffff" stroke-linecap="butt" stroke-linejoin="miter" stroke-width="0.5"/>
<path d="M30.2907 15.6025C28.3006 13.659 25.4556 12.4176 22.4541 12.4176C16.3566 12.4176 11.4136 17.3606 11.4136 23.4582C11.4136 29.5557 16.3566 34.4987 22.4541 34.4987C25.046 34.4987 27.4292 33.6056 29.313 32.1103L25.7472 32.1015C24.4992 32.732 23.0884 33.0873 21.5946 33.0873C16.5025 33.0873 12.3744 28.9592 12.3744 23.8671C12.3744 18.7749 16.5025 14.6469 21.5946 14.6469C23.0865 14.6469 24.4956 15.0012 25.7424 15.6303" fill="#ffffff" fill-rule="nonzero" opacity="1" stroke="#ffffff" stroke-linecap="butt" stroke-linejoin="miter" stroke-width="0.5"/>
<path d="M37.0829 15.5908C34.5025 11.0572 29.6271 8 24.0376 8C15.7533 8 9.03758 14.7157 9.03758 23C9.03758 31.2843 15.7533 38 24.0376 38C28.8875 38 33.1998 35.6983 35.9417 32.1277L32.0344 32.0957C29.7477 34.5486 26.4879 36.0824 22.8699 36.0824C15.9515 36.0824 10.3431 30.4739 10.3431 23.5556C10.3431 16.6372 15.9515 11.0287 22.8699 11.0287C26.7616 11.0287 30.2388 12.8034 32.5364 15.5876" fill="#ffffff" fill-rule="nonzero" opacity="1" stroke="#ffffff" stroke-linecap="butt" stroke-linejoin="miter" stroke-width="0.5"/>
<path d="M22.5191 17.3087C22.0289 17.2044 21.5236 17.1491 21.0113 17.1491C17.0228 17.1491 13.7895 20.3824 13.7895 24.3709C13.7895 28.3594 17.0228 31.5927 21.0113 31.5927C22.0002 31.5927 22.9427 31.394 23.801 31.0342C23.801 31.0342 23.1871 30.7939 22.6616 30.5487C22.1361 30.3035 21.866 30.0813 21.866 30.0813C21.866 30.0813 21.3887 30.215 20.4117 30.215C17.0808 30.215 14.4181 27.9693 14.4181 24.6384C14.4181 21.3075 16.8506 19.0802 20.1815 19.0802C20.1815 19.0802 21.0384 17.8844 22.2248 17.4007" fill="#ffffff" fill-rule="nonzero" opacity="1" stroke="#ffffff" stroke-linecap="butt" stroke-linejoin="miter" stroke-width="0.5"/>
</g>
</g>
<g opacity="1">
<path d="M11.0469 50.5L34.9531 50.5C40.778 50.5 45.5 55.222 45.5 61.0469L45.5 84.9531C45.5 90.778 40.778 95.5 34.9531 95.5L11.0469 95.5C5.222 95.5 0.500001 90.778 0.5 84.9531L0.5 61.0469C0.499999 55.222 5.222 50.5 11.0469 50.5Z" fill="#000000" fill-rule="nonzero" opacity="1" stroke="#ffffff" stroke-linecap="butt" stroke-linejoin="miter" stroke-width="0.5"/>
<g opacity="1">
<path d="M34.4125 67L33.85 67C34.2763 66.3271 34.5017 65.5466 34.5 64.75C34.4995 63.2215 33.6783 61.811 32.3493 61.056C31.0203 60.3009 29.3882 60.3178 28.075 61.1C26.814 59.3265 24.5508 58.5722 22.478 59.2346C20.4052 59.897 18.9988 61.8239 19 64C19.0017 64.3357 19.0352 64.6706 19.1 65L12 65C10.8954 65 10 65.8954 10 67L10 79C10 80.1046 10.8954 81 12 81L16.5875 81C17.8134 84.0233 20.7523 85.9993 24.0147 85.9938C27.2771 85.9883 30.2093 84.0024 31.425 80.975C34.0096 80.7545 35.9964 78.594 36 76L36 68.5875C36 67.7107 35.2893 67 34.4125 67ZM24 61C25.654 61.0068 26.9932 62.346 27 64C26.9974 64.5965 26.8191 65.1791 26.4875 65.675C26.1113 65.2472 25.5697 65.0014 25 65L21.175 65C21.0614 64.6787 21.0023 64.3407 21 64C21.0068 62.346 22.346 61.0068 24 61ZM17.5 76L17.5 71L16.25 71C15.6977 71 15.25 70.5523 15.25 70C15.25 69.4477 15.6977 69 16.25 69L20.75 69C21.3023 69 21.75 69.4477 21.75 70C21.75 70.5523 21.3023 71 20.75 71L19.5 71L19.5 76C19.5 76.5523 19.0523 77 18.5 77C17.9477 77 17.5 76.5523 17.5 76ZM30 78C30 81.3137 27.3137 84 24 84C21.8585 83.9886 19.8818 82.8483 18.8 81L25 81C26.1046 81 27 80.1046 27 79L27 69L30 69L30 78ZM30.25 67C29.5701 66.9996 28.9268 66.6917 28.5 66.1625C28.8299 65.4894 29.0009 64.7496 29 64C29.001 63.6511 28.9633 63.3031 28.8875 62.9625C29.2775 62.6608 29.757 62.4981 30.25 62.5C31.4926 62.5 32.5 63.5074 32.5 64.75C32.5 65.9926 31.4926 67 30.25 67ZM34 76C33.9965 77.2878 33.1715 78.4297 31.95 78.8375C31.9857 78.5598 32.0024 78.28 32 78L32 69L34 69L34 76Z" fill="#ffffff" fill-rule="nonzero" opacity="1" stroke="none"/>
</g>
</g>
<g opacity="1">
<g opacity="1">
<path d="M261.047 0.5L284.953 0.5C290.778 0.5 295.5 5.222 295.5 11.0469L295.5 34.9531C295.5 40.778 290.778 45.5 284.953 45.5L261.047 45.5C255.222 45.5 250.5 40.778 250.5 34.9531L250.5 11.0469C250.5 5.222 255.222 0.5 261.047 0.5Z" fill="#000000" fill-rule="nonzero" opacity="1" stroke="#ffffff" stroke-linecap="butt" stroke-linejoin="miter" stroke-width="0.5"/>
</g>
<path d="M278.966 6.01501C278.902 5.94376 276.605 6.04314 274.607 8.2125C272.608 10.38 272.916 12.8662 272.961 12.93C273.006 12.9937 275.811 13.0931 277.601 10.5712C279.392 8.04938 279.03 6.08814 278.966 6.01501ZM285.18 28.0143C285.09 27.8343 280.82 25.7005 281.218 21.5981C281.615 17.4937 284.359 16.3687 284.402 16.2468C284.445 16.125 283.282 14.7656 282.05 14.0775C281.146 13.5923 280.145 13.3144 279.12 13.2637C278.917 13.2581 278.214 13.0856 276.769 13.4812C275.816 13.7418 273.669 14.5856 273.079 14.6193C272.486 14.6531 270.724 13.6406 268.828 13.3725C267.615 13.1381 266.329 13.6181 265.408 13.9875C264.489 14.355 262.742 15.4012 261.519 18.1818C260.297 20.9606 260.936 25.363 261.394 26.7318C261.851 28.0987 262.566 30.3393 263.781 31.9743C264.861 33.8192 266.293 35.0999 266.891 35.5349C267.489 35.9699 269.177 36.2586 270.347 35.6605C271.288 35.083 272.987 34.7511 273.658 34.7755C274.327 34.7999 275.647 35.0642 276.999 35.7861C278.07 36.1555 279.082 36.0017 280.097 35.5892C281.111 35.1749 282.579 33.6036 284.293 30.418C284.944 28.9368 285.24 28.1362 285.18 28.0143Z" fill="#ffffff" fill-rule="nonzero" opacity="1" stroke="none"/>
</g>
<g opacity="1">
<path d="M161.047 0.5L184.953 0.5C190.778 0.5 195.5 5.222 195.5 11.0469L195.5 34.9531C195.5 40.778 190.778 45.5 184.953 45.5L161.047 45.5C155.222 45.5 150.5 40.778 150.5 34.9531L150.5 11.0469C150.5 5.222 155.222 0.5 161.047 0.5Z" fill="#000000" fill-rule="nonzero" opacity="1" stroke="#ffffff" stroke-linecap="butt" stroke-linejoin="miter" stroke-width="0.5"/>
<path d="M172.873 5.59766C163.948 5.59766 164.506 9.46801 164.506 9.46801L164.516 13.4776L173.033 13.4776L173.033 14.6815L161.133 14.6815C161.133 14.6815 155.422 14.0339 155.422 23.039C155.422 32.0443 160.407 31.7251 160.407 31.7251L163.381 31.7251L163.381 27.5462C163.381 27.5462 163.221 22.5616 168.287 22.5616L176.734 22.5616C176.734 22.5616 181.48 22.6382 181.48 17.9748L181.48 10.264C181.48 10.264 182.2 5.59766 172.873 5.59766ZM168.177 8.29396C169.025 8.29396 169.709 8.97883 169.709 9.82618C169.709 10.6735 169.025 11.3584 168.177 11.3584C167.33 11.3584 166.645 10.6735 166.645 9.82618C166.645 8.97883 167.33 8.29396 168.177 8.29396Z" fill="#adadad" fill-rule="nonzero" opacity="1" stroke="none"/>
<path d="M173.127 40.5707C182.052 40.5707 181.494 36.7006 181.494 36.7006L181.484 32.6908L172.967 32.6908L172.967 31.4869L184.867 31.4869C184.867 31.4869 190.578 32.1346 190.578 23.1294C190.578 14.1241 185.593 14.4435 185.593 14.4435L182.619 14.4435L182.619 18.6223C182.619 18.6223 182.779 23.607 177.713 23.607L169.266 23.607C169.266 23.607 164.52 23.5302 164.52 28.1936L164.52 35.9045C164.52 35.9045 163.8 40.5707 173.127 40.5707ZM177.823 37.8744C176.975 37.8744 176.291 37.1896 176.291 36.3423C176.291 35.4949 176.975 34.81 177.823 34.81C178.67 34.81 179.355 35.4949 179.355 36.3423C179.355 37.1896 178.67 37.8744 177.823 37.8744Z" fill="#ffffff" fill-rule="nonzero" opacity="1" stroke="none"/>
</g>
<g opacity="1">
<path d="M325.497 65.5663C324.668 65.5663 323.997 66.2379 323.997 67.0663L323.997 75.3476L314.653 66.0038C313.708 65.0588 312.09 65.7299 312.09 67.0663L312.09 78.9413C312.09 79.7698 312.762 80.4413 313.59 80.4413C314.419 80.4413 315.09 79.7698 315.09 78.9413L315.09 70.6913L324.434 80.0038C325.379 80.9489 326.997 80.2777 326.997 78.9413L326.997 67.0663C326.997 66.2379 326.325 65.5663 325.497 65.5663Z" fill="#ffffff" fill-rule="nonzero" opacity="1" stroke="none"/>
<path d="M332.709 65.5196L332.28 66.3188L328.967 72.3418L328.538 73.102L328.967 73.8622L332.28 79.6904L332.729 80.4896L333.645 80.4896L340.428 80.4896L341.403 80.4896L341.832 79.6124L344.307 74.6224L345.418 72.3613L342.904 72.3613L336.569 72.3808C335.745 72.3692 334.987 73.1163 334.987 73.9402C334.987 74.7641 335.745 75.5112 336.569 75.4996L340.389 75.4801L339.453 77.3708L334.541 77.3708L332.105 73.0825L334.561 68.6383L339.786 68.6383L341.004 71.1382L344.143 71.1382L342.164 66.3967L341.735 65.5196L340.761 65.5196L333.645 65.5196L332.709 65.5196Z" fill="#ffffff" fill-rule="nonzero" opacity="1" stroke="none"/>
<path d="M348.506 65.5001C347.69 65.5103 346.956 66.2625 346.967 67.079L346.967 71.1424L350.085 71.1424L350.085 67.079C350.096 66.2495 349.336 65.4898 348.506 65.5001Z" fill="#ffffff" fill-rule="nonzero" opacity="1" stroke="none"/>
<path d="M353.497 65.5976C352.668 65.5976 351.997 66.2692 351.997 67.0976L351.997 78.9726C351.997 80.309 353.614 80.9801 354.559 80.0351L363.903 70.7226L363.903 78.9726C363.903 79.801 364.574 80.4726 365.403 80.4726C366.231 80.4726 366.903 79.801 366.903 78.9726L366.903 67.0976C366.903 65.7612 365.285 65.09 364.34 66.0351L354.997 75.3476L354.997 67.0976C354.997 66.2691 354.325 65.5976 353.497 65.5976Z" fill="#ffffff" fill-rule="nonzero" opacity="1" stroke="none"/>
<path d="M370.34 65.5976C369.956 65.5983 369.57 65.7417 369.278 66.0351C368.693 66.6219 368.691 67.5753 369.278 68.1601L381.184 80.0038C381.771 80.5886 382.724 80.5907 383.309 80.0038C383.894 79.417 383.896 78.4636 383.309 77.8788L371.403 66.0351C371.109 65.7427 370.724 65.5969 370.34 65.5976Z" fill="#ffffff" fill-rule="nonzero" opacity="1" stroke="none"/>
<path d="M382.247 65.5976C381.863 65.5969 381.477 65.7427 381.184 66.0351L369.309 77.8788C368.722 78.4636 368.693 79.417 369.278 80.0038C369.863 80.5906 370.816 80.5886 371.403 80.0038L383.309 68.1601C383.896 67.5753 383.894 66.6219 383.309 66.0351C383.017 65.7417 382.63 65.5982 382.247 65.5976Z" fill="#ffffff" fill-rule="nonzero" opacity="1" stroke="none"/>
<path d="M348.506 80.4999C347.69 80.4897 346.956 79.7375 346.967 78.921L346.967 72.3939L350.085 72.3939L350.085 78.921C350.096 79.7505 349.336 80.5102 348.506 80.4999Z" fill="#ffffff" fill-rule="nonzero" opacity="1" stroke="none"/>
</g>
</g>
</svg>
